<svg width="263" height="36" viewBox="0 0 263 36" fill="none" xmlns="http://www.w3.org/2000/svg">
<path d="M53.8558 28.6039V26.4188C55.1044 28.5102 57.4767 28.9784 58.819 28.9784C62.8146 28.9784 66.217 25.576 66.217 20.5815C66.217 15.8056 63.1579 12.1534 58.6629 12.1534C57.1334 12.1534 55.3853 12.6841 54.2928 14.3385V6.28495H48.8613V28.6039H53.8558ZM54.1679 20.5191C54.1679 18.2716 55.6038 16.8981 57.508 16.8981C59.2872 16.8981 60.7543 18.2716 60.7543 20.5191C60.7543 22.7666 59.2872 24.2337 57.508 24.2337C55.6038 24.2337 54.1679 22.7978 54.1679 20.5191Z" fill="#170F49"/>
<path d="M79.8754 12.2783C79.6257 12.1846 79.2823 12.1534 78.8765 12.1534C76.7539 12.1534 75.1931 13.3084 74.3503 15.2749V12.528H68.9501V28.6039H74.3815V22.7042C74.3815 19.3329 75.9111 17.2415 78.658 17.2415C79.2199 17.2415 79.6257 17.3039 79.8754 17.4288V12.2783Z" fill="#170F49"/>
<path d="M81.9666 28.6039H87.398V12.528H81.9666V28.6039ZM81.7481 8.03301C81.7481 9.6562 82.9967 10.8424 84.6511 10.8424C86.3055 10.8424 87.5853 9.6562 87.5853 8.03301C87.5853 6.40981 86.3055 5.22363 84.6511 5.22363C82.9967 5.22363 81.7481 6.40981 81.7481 8.03301Z" fill="#170F49"/>
<path d="M94.8524 20.644L89.3273 28.6039H95.3518L97.9739 24.3586L100.596 28.6039H106.621L101.095 20.644L106.745 12.528H100.565L97.9739 16.9918L95.383 12.528H89.2024L94.8524 20.644Z" fill="#170F49"/>
<path d="M113.003 15.6807H115.063V22.1111C115.063 25.8569 117.186 27.9171 120.682 27.9171C122.274 27.9171 123.491 27.5738 124.334 27.168V22.5793C123.679 23.0476 122.898 23.1724 122.243 23.1724C121.244 23.1724 120.495 22.5793 120.495 21.2058V15.6807H123.897V11.4667H120.495V7.12776H115.219V11.4667H113.003V15.6807Z" fill="#4A3AFF"/>
<path d="M141.032 20.8001C141.188 20.3006 141.344 19.3329 141.344 18.4901C141.344 14.0888 138.223 11.0921 133.634 11.0921C128.889 11.0921 125.268 14.7755 125.268 19.5202C125.268 24.2649 128.796 27.9171 134.29 27.9171C137.005 27.9171 139.128 27.2304 141.251 25.3263L138.504 21.8926C137.723 22.6418 136.443 23.3909 134.695 23.3909C132.854 23.3909 131.106 22.6105 130.856 20.8001H141.032ZM133.509 15.3998C134.914 15.3998 136.006 16.2738 136.1 17.6473V17.6785H130.762C130.856 16.2114 132.104 15.3998 133.509 15.3998Z" fill="#4A3AFF"/>
<path d="M144.014 11.4667V27.5425H149.445V19.0832C149.445 17.0854 150.475 15.8368 152.005 15.8368C153.628 15.8368 154.502 16.8357 154.502 18.7086V27.5425H159.934V19.0832C159.934 17.0854 161.026 15.8368 162.493 15.8368C164.116 15.8368 164.99 16.8357 164.99 18.7086V27.5425H170.422V17.741C170.422 13.5893 168.112 11.0921 164.21 11.0921C161.494 11.0921 160.027 12.3095 158.935 13.7142C157.842 11.9973 156.094 11.0921 153.722 11.0921C151.818 11.0921 150.288 11.7476 149.196 13.3708V11.4667H144.014Z" fill="#4A3AFF"/>
<path d="M174.101 33.7856H179.533V25.9818C180.563 27.4801 182.373 27.9171 183.903 27.9171C188.398 27.9171 191.457 24.2649 191.457 19.489C191.457 14.4946 187.961 11.0921 183.965 11.0921C182.654 11.0921 180.438 11.5603 179.096 13.6518V11.4667H174.101V33.7856ZM179.408 19.5514C179.408 17.2727 180.844 15.8368 182.748 15.8368C184.527 15.8368 185.994 17.3039 185.994 19.5514C185.994 21.7989 184.527 23.1724 182.748 23.1724C180.844 23.1724 179.408 21.7989 179.408 19.5514Z" fill="#4A3AFF"/>
<path d="M194.003 22.7354C194.003 26.1066 195.938 27.9171 199.309 27.9171C200.402 27.9171 201.245 27.7298 201.838 27.4489V23.0788C201.432 23.2348 201.057 23.2661 200.776 23.2661C199.528 23.2661 199.434 22.4857 199.434 21.7365V5.22363H194.003V22.7354Z" fill="#4A3AFF"/>
<path d="M208.553 27.9171C210.675 27.9171 212.08 26.9807 212.704 25.7633V27.5425H217.73V17.4912C217.73 13.4957 214.983 11.0921 210.332 11.0921C207.179 11.0921 204.589 12.4656 203.215 14.2136L206.056 17.6161C206.898 16.6484 208.209 15.712 210.051 15.712C211.393 15.712 212.548 16.1802 212.548 17.5224V17.5537L208.397 18.3653C205.026 19.0832 203.153 20.7064 203.153 23.0788C203.153 25.9194 205.431 27.9171 208.553 27.9171ZM212.548 20.8313V21.081C212.548 22.8603 211.55 24.0152 209.833 24.0152C208.865 24.0152 208.334 23.5158 208.334 22.7354C208.334 21.955 208.959 21.5492 209.926 21.3307L212.548 20.8313Z" fill="#4A3AFF"/>
<path d="M219.665 15.6807H221.725V22.1111C221.725 25.8569 223.848 27.9171 227.344 27.9171C228.936 27.9171 230.154 27.5738 230.996 27.168V22.5793C230.341 23.0476 229.56 23.1724 228.905 23.1724C227.906 23.1724 227.157 22.5793 227.157 21.2058V15.6807H230.559V11.4667H227.157V7.12776H221.882V11.4667H219.665V15.6807Z" fill="#4A3AFF"/>
<path d="M247.694 20.8001C247.85 20.3006 248.007 19.3329 248.007 18.4901C248.007 14.0888 244.885 11.0921 240.296 11.0921C235.552 11.0921 231.931 14.7755 231.931 19.5202C231.931 24.2649 235.458 27.9171 240.952 27.9171C243.668 27.9171 245.79 27.2304 247.913 25.3263L245.166 21.8926C244.386 22.6418 243.106 23.3909 241.358 23.3909C239.516 23.3909 237.768 22.6105 237.518 20.8001H247.694ZM240.171 15.3998C241.576 15.3998 242.669 16.2738 242.762 17.6473V17.6785H237.425C237.518 16.2114 238.767 15.3998 240.171 15.3998Z" fill="#4A3AFF"/>
<path d="M256.232 27.9171C260.228 27.9171 262.913 25.7008 262.913 22.829C262.913 19.6451 260.447 18.8023 257.918 17.8034C255.639 16.8357 254.672 16.6796 254.672 16.0865C254.672 15.4935 255.39 15.1501 256.232 15.1501C257.731 15.1501 258.574 15.868 259.104 16.7733L262.476 14.3385C261.477 12.4344 259.135 11.0921 256.389 11.0921C252.768 11.0921 249.74 12.8402 249.74 16.0553C249.74 18.6462 251.519 19.926 254.672 21.0498C256.888 21.8302 257.981 22.1111 257.981 22.9539C257.981 23.547 257.387 23.8591 256.295 23.8591C254.672 23.8591 253.423 22.8603 252.674 21.5804L249.209 24.2337C250.551 26.6061 253.236 27.9171 256.232 27.9171Z" fill="#4A3AFF"/>
<path fill-rule="evenodd" clip-rule="evenodd" d="M29.8438 10.1368C32.643 10.1368 34.9122 7.86761 34.9122 5.06841C34.9122 2.2692 32.643 0 29.8438 0C27.0446 0 24.7754 2.2692 24.7754 5.06841C24.7754 7.86761 27.0446 10.1368 29.8438 10.1368Z" fill="#8055FA"/>
<path fill-rule="evenodd" clip-rule="evenodd" d="M29.8438 22.2976C32.643 22.2976 34.9122 20.0287 34.9122 17.2298C34.9122 14.431 32.643 12.1621 29.8438 12.1621C27.0446 12.1621 24.7754 14.431 24.7754 17.2298C24.7754 20.0287 27.0446 22.2976 29.8438 22.2976Z" fill="#7550FB"/>
<path fill-rule="evenodd" clip-rule="evenodd" d="M29.8438 34.9122C32.643 34.9122 34.9122 32.643 34.9122 29.8438C34.9122 27.0446 32.643 24.7754 29.8438 24.7754C27.0446 24.7754 24.7754 27.0446 24.7754 29.8438C24.7754 32.643 27.0446 34.9122 29.8438 34.9122Z" fill="#6A4AFC"/>
<path d="M17.2295 12.1621C20.0282 12.1621 22.2977 14.4308 22.2979 17.2295C22.2979 20.0283 20.0283 22.2979 17.2295 22.2979C14.4308 22.2977 12.1621 20.0282 12.1621 17.2295C12.1623 14.4309 14.4309 12.1623 17.2295 12.1621Z" fill="#6045FD"/>
<path d="M17.2295 12.1621C20.0282 12.1621 22.2977 14.4308 22.2979 17.2295C22.2979 20.0283 20.0283 22.2979 17.2295 22.2979C14.4308 22.2977 12.1621 20.0282 12.1621 17.2295C12.1623 14.4309 14.4309 12.1623 17.2295 12.1621Z" stroke="#F7F7FB"/>
<path fill-rule="evenodd" clip-rule="evenodd" d="M17.2298 34.9122C20.0287 34.9122 22.2976 32.643 22.2976 29.8438C22.2976 27.0446 20.0287 24.7754 17.2298 24.7754C14.431 24.7754 12.1621 27.0446 12.1621 29.8438C12.1621 32.643 14.431 34.9122 17.2298 34.9122Z" fill="#553FFE"/>
<path fill-rule="evenodd" clip-rule="evenodd" d="M5.06841 34.9122C7.86761 34.9122 10.1368 32.643 10.1368 29.8438C10.1368 27.0446 7.86761 24.7754 5.06841 24.7754C2.2692 24.7754 0 27.0446 0 29.8438C0 32.643 2.2692 34.9122 5.06841 34.9122Z" fill="#4A3AFF"/>
</svg>
