<svg width="125" height="32" viewBox="0 0 125 32" fill="none" xmlns="http://www.w3.org/2000/svg">
<path d="M40.2437 12.2581C40.2437 10.0224 38.0696 7.64784 34.3074 7.64784C30.0826 7.64784 25.4414 10.7471 24.7321 16.9301C24.0074 23.1748 27.893 25.9502 31.8095 25.9502C35.7259 25.9502 37.7767 24.4238 39.8736 22.3884C38.0696 20.1218 35.7413 21.1703 35.2942 21.4016C34.8008 21.6483 34.1686 21.9876 32.8734 21.9876C31.3623 21.9876 29.8204 21.3091 29.8204 18.4874C39.5036 17.5315 40.2437 14.4939 40.2437 12.2581ZM35.4484 12.6282C35.3867 13.3221 35.1092 14.5093 30.2059 15.1723C31.239 11.5026 33.2126 11.2251 34.1223 11.2251C34.9704 11.2251 35.5101 11.8881 35.4484 12.6282ZM19.0425 13.2295C19.0425 13.2295 16.9609 19.7672 16.7913 20.3069C16.7297 19.7518 15.2032 8.0179 15.2032 8.0179C11.6568 8.0179 9.76025 10.5466 8.75802 13.2141C8.75802 13.2141 6.22929 19.7672 6.01343 20.3223C5.99801 19.8135 5.62795 13.2912 5.62795 13.2912C5.41208 10.0224 2.42079 8.03332 0 8.03332L2.92962 25.8115C6.64561 25.7961 8.65008 23.2828 9.69858 20.6153C9.69858 20.6153 11.9343 14.8331 12.0269 14.571C12.0423 14.8177 13.6304 25.8115 13.6304 25.8115C17.3618 25.8115 19.3663 23.4524 20.4457 20.8774L25.6727 8.03332C21.9876 8.03332 20.0448 10.5466 19.0425 13.2295ZM53.9358 7.61701C51.6384 7.61701 49.8806 8.86595 48.4004 10.7008V10.6854L49.7264 0C46.6734 0 44.191 2.65208 43.713 6.59935L41.4001 25.6727C43.1579 25.6727 45.0236 25.1639 46.0258 23.8687C46.9201 25.0251 48.2616 25.9502 50.2507 25.9502C55.4006 25.9502 58.9316 19.9677 58.9316 14.3551C58.9007 9.23601 56.4183 7.61701 53.9358 7.61701ZM53.4578 16.7913C52.9182 19.9214 51.1758 22.0492 49.4951 22.0492C47.799 22.0492 47.0743 21.2937 47.0743 21.2937C47.3981 18.5491 47.5986 16.8684 48.2153 15.419C48.8321 13.9697 50.2969 11.6568 51.8234 11.6568C53.319 11.6568 53.9975 13.6459 53.4578 16.7913ZM71.7911 8.03332H68.1984L68.2138 7.84829C68.4605 5.5046 69.0156 4.27107 70.8505 4.07063C72.0994 3.94727 72.6545 3.29967 72.7933 2.5904C72.9012 2.03531 73.2404 0.107933 73.2404 0.107933C66.0243 0.0616762 63.7577 3.17632 63.1718 7.92539L63.1564 8.03332H63.0793C61.9075 8.03332 60.6123 9.35936 60.3964 11.04L60.3193 11.6568H62.7247L60.7048 28.3402L60.088 31.3315C60.1651 31.3315 60.2576 31.3469 60.3347 31.3469C63.7115 31.2236 65.8701 28.5561 66.3481 24.6859L67.9209 11.6568H69.0465C70.1566 11.6568 71.4518 10.5466 71.6831 8.69634L71.7911 8.03332ZM90.4789 7.72494C86.3312 7.72494 82.4148 10.7779 81.2121 15.5732C80.0094 20.3686 81.8289 26.0428 87.9348 26.0428C94.0253 26.0428 97.5409 20.1373 97.5409 15.2186C97.5409 10.3308 94.2258 7.72494 90.4789 7.72494ZM92.1596 16.6371C91.9437 18.8112 90.9878 22.1109 88.3665 22.1109C85.7299 22.1109 86.0999 18.2561 86.3621 16.4213C86.6396 14.4631 87.7343 11.6722 90.0935 11.6722C92.2059 11.6722 92.4063 14.1855 92.1596 16.6371ZM118.033 13.2295C118.033 13.2295 115.951 19.7672 115.782 20.3069C115.72 19.7518 114.193 8.0179 114.193 8.0179C110.647 8.0179 108.751 10.5466 107.748 13.2141C107.748 13.2141 105.22 19.7672 105.004 20.3223C104.988 19.8135 104.618 13.2912 104.618 13.2912C104.402 10.0224 101.411 8.03332 98.9902 8.03332L101.904 25.8115C105.62 25.7961 107.625 23.2828 108.673 20.6153C108.673 20.6153 110.909 14.8331 110.986 14.571C111.017 14.8177 112.59 25.8115 112.59 25.8115C116.321 25.8115 118.326 23.4524 119.405 20.8774L124.632 8.03332C120.962 8.03332 119.02 10.5466 118.033 13.2295ZM75.1833 0.107933L72.1611 24.4854L71.5444 27.4922C71.6215 27.4922 71.714 27.5076 71.7911 27.5076C75.0445 27.4613 77.3573 24.6088 77.7891 21.0162L79.5314 7.03108C80.0557 2.76001 77.5115 0.107933 75.1833 0.107933Z" fill="#4353FF"/>
</svg>
