<svg width="92" height="42" viewBox="0 0 92 42" fill="none" xmlns="http://www.w3.org/2000/svg">
<path fill-rule="evenodd" clip-rule="evenodd" d="M61.9204 4.86467H58.5044L60.92 2.45542C60.73 2.18941 60.5181 1.9398 60.2873 1.70962C60.0565 1.47944 59.8069 1.2687 59.5401 1.07922L57.1247 3.48847V0.0813814C56.8086 0.0285443 56.4835 0.000607323 56.1529 0H56.1461C55.8149 0.000607323 55.4904 0.0285443 55.1743 0.0813814V3.48847L52.7588 1.07922C52.492 1.2687 52.2419 1.47944 52.0116 1.70962L52.0104 1.71084C51.7797 1.9404 51.5684 2.18941 51.379 2.45542L53.7946 4.86467H50.3786C50.3786 4.86467 50.297 5.50418 50.297 5.83518V5.83942C50.297 6.1698 50.325 6.49472 50.3786 6.81054H53.7946L51.379 9.21918C51.759 9.75121 52.2254 10.217 52.7588 10.5954L55.1743 8.18612V11.5932C55.4904 11.6461 55.8142 11.674 56.145 11.6747H56.1534C56.484 11.674 56.8092 11.6461 57.1247 11.5932V8.18612L59.5408 10.5954C59.8069 10.4065 60.0565 10.1952 60.2873 9.96498H60.288C60.5181 9.7348 60.73 9.48519 60.92 9.21918L58.5038 6.81054H61.9204C61.9734 6.49534 62.0014 6.17163 62.0014 5.84125V5.83335C62.0014 5.50297 61.9734 5.17987 61.9204 4.86467ZM67.6353 29.6782C66.6597 28.7642 66.1488 27.3224 66.1014 25.3528H78.4055C78.4287 25.0953 78.4524 24.7855 78.4755 24.4212C78.4994 24.058 78.5116 23.7125 78.5116 23.3839C78.5116 22.188 78.3465 21.0809 78.0176 20.0612C77.6883 19.0415 77.2066 18.1627 76.5727 17.4242C75.9376 16.6857 75.1503 16.1057 74.2102 15.6836C73.27 15.2615 72.1771 15.0502 70.9319 15.0502C69.4742 15.0502 68.2107 15.3022 67.1414 15.8063C66.0722 16.311 65.185 16.9906 64.4799 17.8457C63.7753 18.7021 63.2518 19.7096 62.9114 20.8696C62.5703 22.0308 62.3999 23.2788 62.3999 24.6143C62.3999 25.9747 62.5765 27.2227 62.9289 28.3596C63.2815 29.4966 63.84 30.4817 64.6035 31.3137C65.3671 32.1458 66.337 32.7901 67.5123 33.2474C68.6868 33.7047 70.097 33.9331 71.7429 33.9331C72.8706 33.9331 73.8985 33.8505 74.8276 33.6872C75.755 33.5226 76.6075 33.2772 77.3832 32.9487C77.3594 32.4561 77.2895 31.9587 77.1719 31.454C77.0538 30.9499 76.9016 30.5224 76.7134 30.1707C75.2088 30.7567 73.6232 31.0501 71.9541 31.0501C70.0501 31.0501 68.6107 30.5922 67.6353 29.6782ZM34.6906 15.4721C34.9251 15.4259 35.1662 15.3907 35.4129 15.367C35.66 15.3438 35.9122 15.3317 36.1709 15.3317C36.4054 15.3317 36.6525 15.3438 36.9113 15.367C37.1695 15.3907 37.4167 15.4259 37.6518 15.4721C37.6749 15.5199 37.7048 15.6657 37.7394 15.9123C37.7748 16.1583 37.8101 16.4219 37.8454 16.7031C37.8808 16.9843 37.916 17.2546 37.9513 17.512C37.9867 17.7701 38.0038 17.9341 38.0038 18.0046C38.2388 17.6292 38.5207 17.2661 38.8501 16.9144C39.1789 16.5628 39.5734 16.2458 40.0313 15.9652C40.4893 15.6834 41.0063 15.4611 41.5829 15.2971C42.1577 15.1331 42.7982 15.0505 43.5039 15.0505C44.5611 15.0505 45.5425 15.2267 46.4481 15.5783C47.3522 15.9299 48.1274 16.4747 48.774 17.2126C49.4201 17.9517 49.9255 18.8894 50.2902 20.0257C50.6543 21.1639 50.8364 22.5048 50.8364 24.0523C50.8364 27.1466 49.9961 29.5674 48.3162 31.3134C46.635 33.0601 44.2559 33.9335 41.1767 33.9335C40.6597 33.9335 40.1313 33.8983 39.5905 33.8278C39.0492 33.7574 38.5798 33.6632 38.1803 33.5466V41.8098C37.8983 41.856 37.5988 41.8912 37.2815 41.9149C36.9643 41.9379 36.6757 41.9501 36.4175 41.9501C36.1587 41.9501 35.8714 41.9379 35.5541 41.9149C35.2369 41.8912 34.9488 41.856 34.6906 41.8098V15.4721ZM27.4632 21.6261C27.4632 20.2427 27.1106 19.2818 26.4056 18.7425C25.7004 18.2038 24.6781 17.9341 23.3384 17.9341C22.5152 17.9341 21.7462 17.9991 21.0294 18.1273C20.3122 18.2566 19.6125 18.4261 18.9318 18.6368C18.4848 17.8631 18.262 16.9381 18.262 15.8589C19.0602 15.6014 19.9414 15.4022 20.9059 15.2613C21.8692 15.1204 22.7972 15.0505 23.691 15.0505C26.0408 15.0505 27.8273 15.5845 29.0494 16.6503C30.2714 17.7173 30.8828 19.4228 30.8828 21.7664V33.0541C30.0602 33.2418 29.0616 33.4349 27.8864 33.6342C26.7106 33.8327 25.5117 33.9329 24.2901 33.9329C23.1381 33.9329 22.0987 33.8278 21.1701 33.6165C20.2415 33.4052 19.4542 33.0663 18.8082 32.5962C18.1615 32.1286 17.6623 31.5298 17.3097 30.8033C16.9571 30.077 16.7811 29.1982 16.7811 28.1657C16.7811 27.1588 16.9863 26.2734 17.3979 25.5111C17.809 24.7502 18.3673 24.1168 19.0725 23.6126C19.7776 23.1092 20.5886 22.7332 21.505 22.4878C22.4221 22.2413 23.3854 22.118 24.3962 22.118C25.1481 22.118 25.7649 22.1363 26.2466 22.1708C26.7283 22.2067 27.1337 22.2474 27.4632 22.2942V21.6261ZM0 33.0192L9.51903 18.2503H1.12831C1.05767 17.8282 1.02235 17.36 1.02235 16.8438C1.02235 16.3518 1.05767 15.8939 1.12831 15.4718H14.7014L14.8774 15.9297L5.28835 30.7333H14.2782C14.3482 31.2028 14.3841 31.6825 14.3841 32.1745C14.3841 32.6446 14.3482 33.0891 14.2782 33.5118H0.176583L0 33.0192ZM26.1236 24.8966C26.6643 24.9439 27.1106 24.99 27.4632 25.0369V30.7687C27.0162 30.886 26.5054 30.9734 25.9293 31.0318C25.3539 31.0913 24.7956 31.1203 24.2549 31.1203C23.8322 31.1203 23.3854 31.0973 22.9153 31.0499C22.4452 31.0026 22.0165 30.8738 21.6287 30.663C21.2408 30.4517 20.9175 30.1475 20.6593 29.7484C20.3999 29.3506 20.2714 28.7992 20.2714 28.0959C20.2714 26.9948 20.6526 26.1743 21.4174 25.6345C22.1803 25.0957 23.291 24.8255 24.7487 24.8255C25.1244 24.8255 25.5829 24.8498 26.1236 24.8966ZM39.5552 30.909C39.0851 30.8392 38.626 30.722 38.1803 30.5574V23.2439C38.1803 22.3524 38.3094 21.586 38.5688 20.9404C38.827 20.296 39.1674 19.7621 39.5905 19.34C40.0138 18.9179 40.4948 18.6015 41.036 18.3914C41.5761 18.1801 42.1406 18.0744 42.7282 18.0744C44.3022 18.0744 45.4366 18.6258 46.1301 19.7269C46.8231 20.8292 47.1702 22.3178 47.1702 24.1932C47.1702 25.3654 47.0228 26.3789 46.7293 27.234C46.4352 28.0904 46.0358 28.7992 45.5304 29.3616C45.0256 29.9245 44.4204 30.3417 43.7153 30.6101C43.0101 30.8798 42.235 31.0147 41.3886 31.0147C40.636 31.0147 40.0253 30.9789 39.5552 30.909ZM55.1729 18.2151H52.881C52.8342 18.0275 52.7988 17.8107 52.7757 17.5647C52.7519 17.3187 52.7403 17.0782 52.7403 16.8438C52.7403 16.61 52.7519 16.3689 52.7757 16.1229C52.7988 15.8769 52.8342 15.6601 52.881 15.4718H58.5932V33.5118C58.3337 33.5579 58.0464 33.5925 57.7291 33.6163C57.4119 33.6393 57.1233 33.6515 56.8651 33.6515C56.63 33.6515 56.3536 33.6393 56.037 33.6163C55.7191 33.5925 55.4311 33.5579 55.1729 33.5118V18.2151ZM75.0566 22.7516C75.0566 22.0952 74.9683 21.4684 74.7923 20.8696C74.6157 20.272 74.3569 19.7508 74.0166 19.3051C73.6749 18.8599 73.2409 18.5022 72.7117 18.2331C72.1832 17.9635 71.5541 17.8281 70.8259 17.8281C69.392 17.8281 68.2934 18.2623 67.5292 19.1296C66.7657 19.9968 66.3017 21.2042 66.1367 22.7516H75.0566ZM83.0962 15.367C82.8611 15.3907 82.614 15.4259 82.3558 15.4721V33.5114C82.6377 33.5576 82.9373 33.5928 83.2551 33.6165C83.5723 33.6396 83.8598 33.6517 84.1191 33.6517C84.3767 33.6517 84.6654 33.6396 84.982 33.6165C85.2993 33.5928 85.5872 33.5576 85.846 33.5114V24.5443C85.846 23.326 85.9812 22.3294 86.2515 21.5562C86.5214 20.7825 86.886 20.1728 87.3439 19.727C87.8024 19.2818 88.3187 18.9715 88.8954 18.7954C89.4714 18.6199 90.0767 18.5318 90.7112 18.5318H91.1868C91.3865 18.5318 91.5801 18.5555 91.7688 18.6016C91.8158 18.321 91.8571 18.0277 91.8925 17.7228C91.9271 17.4186 91.9448 17.1252 91.9448 16.844C91.9448 16.5859 91.9333 16.3399 91.9095 16.1055C91.8863 15.8717 91.8504 15.6482 91.8041 15.4368C91.6635 15.4144 91.4918 15.3967 91.2927 15.3846C91.0929 15.3724 90.8987 15.367 90.7112 15.367C89.4416 15.367 88.4022 15.6604 87.5912 16.2458C86.7807 16.8319 86.128 17.5243 85.6348 18.321C85.6348 17.922 85.5988 17.4361 85.5287 16.8611C85.4582 16.2877 85.3875 15.8237 85.3175 15.4721C85.1056 15.4259 84.8706 15.3907 84.6124 15.367C84.353 15.3439 84.0948 15.3317 83.8367 15.3317C83.5779 15.3317 83.3306 15.3439 83.0962 15.367ZM57.3877 7.07229C57.5326 6.68847 57.6124 6.27366 57.6124 5.84003V5.83456C57.6124 5.40093 57.5326 4.98553 57.3877 4.6023C57.0034 4.45776 56.587 4.3782 56.1523 4.3782H56.1467C55.7119 4.3782 55.2955 4.45776 54.9107 4.6023C54.7664 4.98553 54.6865 5.40093 54.686 5.83456V5.84003C54.6865 6.27366 54.7664 6.68907 54.9112 7.07229C55.2955 7.21684 55.7119 7.2964 56.1467 7.2964H56.1523C56.587 7.2964 57.0034 7.21684 57.3877 7.07229Z" fill="#FF4A00"/>
</svg>
