<svg width="131" height="29" viewBox="0 0 131 29" fill="none" xmlns="http://www.w3.org/2000/svg">
<path d="M52.2126 16.3036L49.9475 10.1976C49.8551 9.94792 49.5018 9.94792 49.4092 10.1976L47.1445 16.304C47.1284 16.3474 47.123 16.394 47.1289 16.4399C47.1347 16.4859 47.1516 16.5297 47.178 16.5677C47.2045 16.6057 47.2397 16.6367 47.2808 16.6581C47.3218 16.6795 47.3674 16.6907 47.4137 16.6907H51.9434C51.9897 16.6907 52.0353 16.6795 52.0763 16.658C52.1174 16.6366 52.1526 16.6055 52.179 16.5675C52.2054 16.5295 52.2223 16.4857 52.2281 16.4398C52.2339 16.3938 52.2286 16.3472 52.2124 16.3038L52.2126 16.3036ZM53.259 19.7356H46.0983C46.0397 19.7356 45.9825 19.7536 45.9344 19.787C45.8863 19.8205 45.8496 19.8679 45.8292 19.9228L44.4195 23.7221C44.3991 23.777 44.3624 23.8244 44.3143 23.8578C44.2662 23.8913 44.209 23.9092 44.1504 23.9092H41.0467C40.9998 23.9092 40.9536 23.8977 40.9122 23.8757C40.8707 23.8537 40.8353 23.8219 40.809 23.783C40.7828 23.7441 40.7664 23.6994 40.7614 23.6528C40.7564 23.6061 40.7629 23.5589 40.7804 23.5154L47.926 5.71463C47.9474 5.66146 47.9842 5.61592 48.0317 5.58386C48.0792 5.5518 48.1352 5.5347 48.1925 5.53475H51.1644C51.2815 5.53475 51.3869 5.60594 51.4307 5.71463L58.5762 23.5152C58.5937 23.5588 58.6003 23.606 58.5953 23.6527C58.5903 23.6994 58.574 23.7442 58.5477 23.7831C58.5214 23.822 58.486 23.8539 58.4445 23.8759C58.403 23.8979 58.3567 23.9094 58.3098 23.9094H55.2067C55.1481 23.9094 55.0909 23.8914 55.0428 23.8579C54.9947 23.8244 54.958 23.777 54.9376 23.7221L53.5277 19.9228C53.5073 19.8679 53.4706 19.8205 53.4225 19.787C53.3744 19.7536 53.3172 19.7356 53.2586 19.7356H53.259ZM60.0303 11.7819H62.6849C62.761 11.7819 62.834 11.8122 62.8878 11.866C62.9417 11.9198 62.9719 11.9928 62.9719 12.069V23.6222C62.9719 23.6983 62.9417 23.7713 62.8878 23.8251C62.834 23.879 62.761 23.9092 62.6849 23.9092H60.0303C59.9542 23.9092 59.8812 23.879 59.8273 23.8251C59.7735 23.7713 59.7433 23.6983 59.7433 23.6222V12.0688C59.7433 11.9926 59.7735 11.9196 59.8273 11.8658C59.8812 11.812 59.9542 11.7817 60.0303 11.7817V11.7819ZM72.6532 14.5922C72.6532 14.6684 72.623 14.7414 72.5692 14.7952C72.5153 14.849 72.4423 14.8793 72.3662 14.8793H72.2858C70.9733 14.8793 70.0105 15.1943 69.3982 15.8242C68.7854 16.4542 68.4796 17.4956 68.4796 18.948V23.6222C68.4796 23.6983 68.4494 23.7713 68.3956 23.8251C68.3417 23.879 68.2687 23.9092 68.1926 23.9092H65.5641C65.4879 23.9092 65.4149 23.879 65.3611 23.8251C65.3073 23.7713 65.277 23.6983 65.277 23.6222V12.0688C65.277 11.9926 65.3073 11.9196 65.3611 11.8658C65.4149 11.812 65.4879 11.7817 65.5641 11.7817H68.1662C68.2423 11.7817 68.3153 11.812 68.3692 11.8658C68.423 11.9196 68.4532 11.9926 68.4532 12.0688V14.354H68.5059C68.8208 13.4091 69.3195 12.6832 70.0023 12.1754C70.6845 11.6681 71.5246 11.4141 72.522 11.4141H72.6532V14.5921V14.5922ZM79.9115 14.4855C79.8354 14.4855 79.7624 14.5157 79.7086 14.5695C79.6547 14.6234 79.6245 14.6964 79.6245 14.7725V19.578C79.6245 20.068 79.7202 20.418 79.9131 20.628C80.1054 20.8379 80.438 20.9429 80.9104 20.9429H81.1747C81.2508 20.9429 81.3239 20.9732 81.3777 21.027C81.4315 21.0808 81.4618 21.1538 81.4618 21.23V23.6482C81.4618 23.7243 81.4315 23.7973 81.3777 23.8512C81.3239 23.905 81.2508 23.9352 81.1747 23.9352H80.0442C78.8717 23.9352 77.9706 23.6335 77.3406 23.0297C76.7105 22.426 76.3955 21.5295 76.3955 20.3392V14.7725C76.3955 14.6964 76.3652 14.6234 76.3114 14.5695C76.2576 14.5157 76.1846 14.4855 76.1084 14.4855H74.4514C74.3753 14.4855 74.3023 14.4552 74.2485 14.4014C74.1946 14.3476 74.1644 14.2746 74.1644 14.1984V12.0688C74.1644 11.9926 74.1946 11.9196 74.2485 11.8658C74.3023 11.812 74.3753 11.7817 74.4514 11.7817H76.1086C76.1848 11.7817 76.2578 11.7515 76.3116 11.6977C76.3654 11.6438 76.3957 11.5708 76.3957 11.4947V7.21261C76.3957 7.13648 76.4259 7.06347 76.4797 7.00964C76.5336 6.95581 76.6066 6.92556 76.6827 6.92556H79.3373C79.4134 6.92556 79.4864 6.95581 79.5402 7.00964C79.5941 7.06347 79.6243 7.13648 79.6243 7.21261V11.4947C79.6243 11.5708 79.6545 11.6438 79.7084 11.6977C79.7622 11.7515 79.8352 11.7817 79.9114 11.7817H81.8309C81.907 11.7817 81.98 11.812 82.0339 11.8658C82.0877 11.9196 82.1179 11.9926 82.1179 12.0688V14.1986C82.1179 14.2747 82.0877 14.3478 82.0339 14.4016C81.98 14.4554 81.907 14.4857 81.8309 14.4857H79.9115V14.4855ZM92.067 20.313C92.6707 19.683 92.9725 18.8605 92.9725 17.8454C92.9725 16.8308 92.6707 16.0079 92.067 15.378C91.4632 14.748 90.6712 14.433 89.6912 14.433C88.7111 14.433 87.9196 14.748 87.3157 15.378C86.7121 16.0079 86.4102 16.8308 86.4102 17.8454C86.4102 18.8605 86.7121 19.683 87.3157 20.313C87.9196 20.9429 88.7111 21.2579 89.6912 21.2579C90.6712 21.2579 91.4632 20.9429 92.067 20.313ZM85.9377 23.5416C85.0452 23.0343 84.3406 22.2947 83.8247 21.3236C83.3082 20.3524 83.0502 19.1931 83.0502 17.8454C83.0502 16.4982 83.3082 15.3386 83.8247 14.3674C84.3406 13.3962 85.0452 12.6572 85.9377 12.1493C86.8302 11.6418 87.81 11.3881 88.8776 11.3881C89.8225 11.3881 90.6318 11.5718 91.3059 11.9392C91.9791 12.3066 92.5172 12.8231 92.9201 13.4881H92.9725V12.0688C92.9725 11.9926 93.0027 11.9196 93.0566 11.8658C93.1104 11.812 93.1834 11.7817 93.2595 11.7817H95.8879C95.964 11.7817 96.037 11.812 96.0908 11.8658C96.1447 11.9196 96.1749 11.9926 96.1749 12.0688V23.622C96.1749 23.6981 96.1447 23.7711 96.0908 23.825C96.037 23.8788 95.964 23.909 95.8879 23.909H93.2595C93.1834 23.909 93.1104 23.8788 93.0566 23.825C93.0027 23.7711 92.9725 23.6981 92.9725 23.622V22.2029H92.9201C92.5172 22.8682 91.9791 23.3841 91.3057 23.7515C90.6318 24.1189 89.8227 24.3027 88.8776 24.3027C87.81 24.3027 86.8302 24.0489 85.9377 23.5416ZM107.106 20.313C107.71 19.683 108.012 18.8605 108.012 17.8454C108.012 16.8308 107.71 16.0079 107.106 15.378C106.502 14.748 105.71 14.433 104.73 14.433C103.75 14.433 102.959 14.748 102.355 15.378C101.751 16.0079 101.449 16.8308 101.449 17.8454C101.449 18.8605 101.751 19.683 102.355 20.313C102.959 20.9429 103.75 21.2579 104.73 21.2579C105.71 21.2579 106.502 20.9429 107.106 20.313ZM103.116 23.7515C102.442 23.3841 101.904 22.8682 101.502 22.2029H101.449V23.622C101.449 23.6981 101.419 23.7711 101.365 23.825C101.311 23.8788 101.238 23.909 101.162 23.909H98.5076C98.4315 23.909 98.3585 23.8788 98.3046 23.825C98.2508 23.7711 98.2206 23.6981 98.2206 23.622V5.82122C98.2206 5.74509 98.2508 5.67208 98.3046 5.61825C98.3585 5.56442 98.4315 5.53418 98.5076 5.53418H101.162C101.238 5.53418 101.311 5.56442 101.365 5.61825C101.419 5.67208 101.449 5.74509 101.449 5.82122V13.4879H101.502C101.904 12.8229 102.442 12.3066 103.116 11.9392C103.79 11.5716 104.599 11.3879 105.544 11.3879C106.612 11.3879 107.592 11.6417 108.484 12.1491C109.377 12.657 110.081 13.396 110.597 14.367C111.113 15.3387 111.372 16.4984 111.372 17.8456C111.372 19.1933 111.113 20.3524 110.597 21.3237C110.081 22.2949 109.377 23.0345 108.484 23.5416C107.592 24.0491 106.612 24.303 105.545 24.303C104.599 24.303 103.79 24.1193 103.116 23.7517L103.116 23.7515ZM115.844 23.9092H113.19C113.114 23.9092 113.041 23.879 112.987 23.8251C112.933 23.7713 112.903 23.6983 112.903 23.6222V5.82179C112.903 5.74567 112.933 5.67266 112.987 5.61883C113.041 5.565 113.114 5.53475 113.19 5.53475H115.844C115.92 5.53475 115.993 5.565 116.047 5.61883C116.101 5.67266 116.131 5.74567 116.131 5.82179V23.6222C116.131 23.6983 116.101 23.7713 116.047 23.8251C115.993 23.879 115.92 23.9092 115.844 23.9092ZM122.106 14.5907C121.666 14.934 121.369 15.4296 121.215 16.078C121.173 16.2567 121.312 16.4282 121.496 16.4282H126.548C126.723 16.4282 126.861 16.2712 126.832 16.0983C126.731 15.4849 126.468 14.996 126.043 14.6301C125.545 14.2015 124.893 13.9872 124.088 13.9872C123.283 13.9872 122.622 14.1883 122.106 14.5907ZM128.576 13.0813C129.609 14.2103 130.125 15.8072 130.125 17.8718V18.2147C130.125 18.2908 130.095 18.3638 130.041 18.4177C129.987 18.4715 129.914 18.5017 129.838 18.5017H121.398C121.356 18.5018 121.315 18.5111 121.277 18.5289C121.239 18.5467 121.205 18.5726 121.178 18.6047C121.151 18.6369 121.131 18.6746 121.12 18.7152C121.109 18.7558 121.107 18.7983 121.114 18.8397C121.249 19.6067 121.588 20.216 122.132 20.6674C122.753 21.184 123.537 21.4418 124.482 21.4418C125.701 21.4418 126.831 20.9657 127.869 20.0133C127.996 19.897 128.197 19.9216 128.295 20.0631L129.586 21.9154C129.626 21.973 129.644 22.0435 129.636 22.1134C129.628 22.1834 129.594 22.2479 129.542 22.2947C128.909 22.8492 128.204 23.3171 127.448 23.6861C126.608 24.0971 125.619 24.303 124.482 24.303C123.169 24.303 122.023 24.0359 121.043 23.5024C120.062 22.9689 119.301 22.2164 118.759 21.2449C118.217 20.2737 117.945 19.1495 117.945 17.8718C117.945 16.5946 118.208 15.466 118.733 14.4857C119.258 13.5059 119.993 12.7447 120.938 12.202C121.883 11.6598 122.985 11.3883 124.245 11.3883C126.1 11.3883 127.544 11.9528 128.576 13.0813ZM63.3186 7.51075C63.3186 8.59346 62.4409 9.47124 61.358 9.47124C60.2749 9.47124 59.3971 8.59346 59.3971 7.51055C59.3971 6.42764 60.2751 5.54987 61.358 5.54987C62.4409 5.54987 63.3186 6.42764 63.3186 7.51055" fill="#333333"/>
<path d="M15.1171 0.357565L2.49493 5.58038C1.79302 5.87086 1.80029 6.86804 2.5066 7.148L15.1814 12.1743C16.295 12.616 17.5352 12.616 18.6488 12.1743L31.3238 7.14781C32.0299 6.86804 32.0376 5.87105 31.3353 5.58057L18.7135 0.357374C17.562 -0.119125 16.2684 -0.119125 15.1169 0.357374" fill="#FCB400"/>
<path d="M18.04 14.9182V27.4747C18.04 28.0718 18.6423 28.4809 19.1974 28.2609L33.321 22.7787C33.4785 22.7163 33.6136 22.608 33.7088 22.4678C33.804 22.3276 33.8549 22.1621 33.8549 21.9926V9.43631C33.8549 8.83907 33.2526 8.43013 32.6975 8.6502L18.5739 14.1323C18.4164 14.1948 18.2813 14.3031 18.1862 14.4433C18.091 14.5835 18.0401 14.749 18.04 14.9184" fill="#18BFFF"/>
<path d="M14.7421 15.5668L10.5505 17.5906L10.1249 17.7963L1.27676 22.0359C0.716072 22.3065 0 21.8977 0 21.2747V9.48952C0 9.2641 0.115582 9.06948 0.270584 8.92309C0.334173 8.85977 0.406315 8.80566 0.484908 8.76235C0.696171 8.63548 0.997755 8.60161 1.25418 8.70303L14.6716 14.0194C15.3536 14.29 15.4072 15.2457 14.7421 15.5669" fill="#F82B60"/>
<path d="M14.742 15.5668L10.5504 17.5906L0.270508 8.9229C0.334109 8.85965 0.40625 8.8056 0.484832 8.76235C0.696094 8.63548 0.997679 8.60161 1.2541 8.70303L14.6716 14.0194C15.3536 14.29 15.4071 15.2457 14.742 15.5669" fill="black" fill-opacity="0.25"/>
</svg>
