<svg width="305" height="41" viewBox="0 0 305 41" fill="none" xmlns="http://www.w3.org/2000/svg">
<path d="M62.3678 33.1254V30.595C63.8138 33.017 66.5611 33.5592 68.1155 33.5592C72.7426 33.5592 76.6828 29.619 76.6828 23.8351C76.6828 18.3043 73.1402 14.0749 67.9348 14.0749C66.1635 14.0749 64.1391 14.6894 62.8739 16.6053V7.27887H56.584V33.1254H62.3678ZM62.7293 23.7628C62.7293 21.1601 64.3922 19.5695 66.5973 19.5695C68.6578 19.5695 70.3568 21.1601 70.3568 23.7628C70.3568 26.3656 68.6578 28.0646 66.5973 28.0646C64.3922 28.0646 62.7293 26.4017 62.7293 23.7628Z" fill="white"/>
<path d="M92.5 14.2195C92.2108 14.111 91.8132 14.0749 91.3433 14.0749C88.8851 14.0749 87.0777 15.4124 86.1016 17.6898V14.5087H79.8479V33.1254H86.1378V26.2933C86.1378 22.3892 87.9091 19.9672 91.0902 19.9672C91.7409 19.9672 92.2108 20.0395 92.5 20.1841V14.2195Z" fill="white"/>
<path d="M94.9217 33.1254H101.212V14.5087H94.9217V33.1254ZM94.6687 9.30322C94.6687 11.183 96.1146 12.5566 98.0305 12.5566C99.9464 12.5566 101.429 11.183 101.429 9.30322C101.429 7.42347 99.9464 6.0498 98.0305 6.0498C96.1146 6.0498 94.6687 7.42347 94.6687 9.30322Z" fill="white"/>
<path d="M109.844 23.9074L103.446 33.1254H110.423L113.459 28.2092L116.496 33.1254H123.472L117.074 23.9074L123.617 14.5087H116.459L113.459 19.678L110.459 14.5087H103.301L109.844 23.9074Z" fill="white"/>
<path d="M130.863 18.1597H133.249V25.6064C133.249 29.9443 135.707 32.3302 139.756 32.3302C141.6 32.3302 143.009 31.9325 143.985 31.4626V26.1487C143.226 26.6909 142.323 26.8355 141.563 26.8355C140.407 26.8355 139.539 26.1487 139.539 24.5581V18.1597H143.479V13.2796H139.539V8.2549H133.43V13.2796H130.863V18.1597Z" fill="white"/>
<path d="M163.323 24.0882C163.503 23.5098 163.684 22.3892 163.684 21.4131C163.684 16.3161 160.069 12.8458 154.755 12.8458C149.261 12.8458 145.067 17.1114 145.067 22.6061C145.067 28.1007 149.152 32.3302 155.514 32.3302C158.659 32.3302 161.117 31.5349 163.576 29.3298L160.395 25.3534C159.491 26.221 158.009 27.0885 155.984 27.0885C153.852 27.0885 151.827 26.1848 151.538 24.0882H163.323ZM154.611 17.8344C156.237 17.8344 157.503 18.8466 157.611 20.4371V20.4733H151.43C151.538 18.7743 152.984 17.8344 154.611 17.8344Z" fill="white"/>
<path d="M166.776 13.2796V31.8964H173.066V22.1C173.066 19.7864 174.259 18.3405 176.03 18.3405C177.91 18.3405 178.922 19.4972 178.922 21.6662V31.8964H185.212V22.1C185.212 19.7864 186.477 18.3405 188.176 18.3405C190.056 18.3405 191.068 19.4972 191.068 21.6662V31.8964H197.358V20.5456C197.358 15.7377 194.683 12.8458 190.164 12.8458C187.019 12.8458 185.32 14.2556 184.055 15.8823C182.79 13.8941 180.765 12.8458 178.018 12.8458C175.813 12.8458 174.042 13.605 172.776 15.4847V13.2796H166.776Z" fill="white"/>
<path d="M201.619 39.1262H207.908V30.0889C209.101 31.8241 211.198 32.3302 212.969 32.3302C218.175 32.3302 221.717 28.1007 221.717 22.5699C221.717 16.7861 217.669 12.8458 213.042 12.8458C211.523 12.8458 208.957 13.3881 207.402 15.81V13.2796H201.619V39.1262ZM207.764 22.6422C207.764 20.0033 209.427 18.3405 211.632 18.3405C213.692 18.3405 215.391 20.0395 215.391 22.6422C215.391 25.2449 213.692 26.8355 211.632 26.8355C209.427 26.8355 207.764 25.2449 207.764 22.6422Z" fill="white"/>
<path d="M224.666 26.3294C224.666 30.2335 226.907 32.3302 230.811 32.3302C232.076 32.3302 233.052 32.1133 233.739 31.7879V26.7271C233.269 26.9078 232.835 26.9439 232.51 26.9439C231.064 26.9439 230.955 26.0402 230.955 25.1726V6.0498H224.666V26.3294Z" fill="white"/>
<path d="M241.515 32.3302C243.974 32.3302 245.6 31.2457 246.323 29.8359V31.8964H252.143V20.2564C252.143 15.6293 248.962 12.8458 243.576 12.8458C239.925 12.8458 236.925 14.4364 235.334 16.4607L238.624 20.401C239.6 19.2804 241.118 18.1959 243.251 18.1959C244.805 18.1959 246.143 18.7381 246.143 20.2925V20.3287L241.335 21.2685C237.431 22.1 235.262 23.9797 235.262 26.7271C235.262 30.0166 237.901 32.3302 241.515 32.3302ZM246.143 24.1243V24.4135C246.143 26.474 244.986 27.8115 242.998 27.8115C241.877 27.8115 241.262 27.2331 241.262 26.3294C241.262 25.4257 241.985 24.9557 243.106 24.7027L246.143 24.1243Z" fill="white"/>
<path d="M254.384 18.1597H256.77V25.6064C256.77 29.9443 259.228 32.3302 263.277 32.3302C265.121 32.3302 266.53 31.9325 267.506 31.4626V26.1487C266.747 26.6909 265.843 26.8355 265.084 26.8355C263.928 26.8355 263.06 26.1487 263.06 24.5581V18.1597H267V13.2796H263.06V8.2549H256.951V13.2796H254.384V18.1597Z" fill="white"/>
<path d="M286.844 24.0882C287.024 23.5098 287.205 22.3892 287.205 21.4131C287.205 16.3161 283.59 12.8458 278.276 12.8458C272.782 12.8458 268.588 17.1114 268.588 22.6061C268.588 28.1007 272.673 32.3302 279.035 32.3302C282.18 32.3302 284.638 31.5349 287.097 29.3298L283.915 25.3534C283.012 26.221 281.53 27.0885 279.505 27.0885C277.372 27.0885 275.348 26.1848 275.059 24.0882H286.844ZM278.132 17.8344C279.758 17.8344 281.024 18.8466 281.132 20.4371V20.4733H274.951C275.059 18.7743 276.505 17.8344 278.132 17.8344Z" fill="white"/>
<path d="M296.731 32.3302C301.358 32.3302 304.467 29.7636 304.467 26.4379C304.467 22.7507 301.611 21.7746 298.683 20.6179C296.044 19.4972 294.924 19.3165 294.924 18.6297C294.924 17.9428 295.755 17.5452 296.731 17.5452C298.466 17.5452 299.442 18.3766 300.057 19.4249L303.961 16.6053C302.804 14.4002 300.093 12.8458 296.912 12.8458C292.719 12.8458 289.212 14.8702 289.212 18.5935C289.212 21.5939 291.273 23.076 294.924 24.3774C297.49 25.2811 298.755 25.6064 298.755 26.5825C298.755 27.2693 298.069 27.6308 296.803 27.6308C294.924 27.6308 293.478 26.474 292.61 24.9919L288.598 28.0646C290.152 30.8119 293.261 32.3302 296.731 32.3302Z" fill="white"/>
<path fill-rule="evenodd" clip-rule="evenodd" d="M34.5609 11.739C37.8025 11.739 40.4304 9.11113 40.4304 5.8695C40.4304 2.62786 37.8025 0 34.5609 0C31.3193 0 28.6914 2.62786 28.6914 5.8695C28.6914 9.11113 31.3193 11.739 34.5609 11.739Z" fill="white"/>
<path opacity="0.9" fill-rule="evenodd" clip-rule="evenodd" d="M34.5609 25.8224C37.8025 25.8224 40.4304 23.1949 40.4304 19.9537C40.4304 16.7125 37.8025 14.085 34.5609 14.085C31.3193 14.085 28.6914 16.7125 28.6914 19.9537C28.6914 23.1949 31.3193 25.8224 34.5609 25.8224Z" fill="white"/>
<path opacity="0.8" fill-rule="evenodd" clip-rule="evenodd" d="M34.5609 40.4304C37.8025 40.4304 40.4304 37.8025 40.4304 34.5609C40.4304 31.3193 37.8025 28.6914 34.5609 28.6914C31.3193 28.6914 28.6914 31.3193 28.6914 34.5609C28.6914 37.8025 31.3193 40.4304 34.5609 40.4304Z" fill="white"/>
<g opacity="0.8">
<path d="M19.9551 14.084C23.1961 14.0842 25.8232 16.7121 25.8232 19.9531C25.823 23.194 23.1959 25.8211 19.9551 25.8213C16.714 25.8213 14.0862 23.1941 14.0859 19.9531C14.0859 16.7119 16.7139 14.084 19.9551 14.084Z" fill="white"/>
<path d="M19.9551 14.084C23.1961 14.0842 25.8232 16.7121 25.8232 19.9531C25.823 23.194 23.1959 25.8211 19.9551 25.8213C16.714 25.8213 14.0862 23.1941 14.0859 19.9531C14.0859 16.7119 16.7139 14.084 19.9551 14.084Z" stroke="#F7F7FB"/>
</g>
<path opacity="0.7" fill-rule="evenodd" clip-rule="evenodd" d="M19.9537 40.4294C23.1949 40.4294 25.8224 37.8016 25.8224 34.5599C25.8224 31.3183 23.1949 28.6904 19.9537 28.6904C16.7125 28.6904 14.085 31.3183 14.085 34.5599C14.085 37.8016 16.7125 40.4294 19.9537 40.4294Z" fill="white"/>
<g opacity="0.6">
<path fill-rule="evenodd" clip-rule="evenodd" d="M5.8695 40.4304C9.11113 40.4304 11.739 37.8025 11.739 34.5609C11.739 31.3193 9.11113 28.6914 5.8695 28.6914C2.62786 28.6914 0 31.3193 0 34.5609C0 37.8025 2.62786 40.4304 5.8695 40.4304Z" fill="white"/>
</g>
</svg>
