<svg width="134" height="38" viewBox="0 0 134 38" fill="none" xmlns="http://www.w3.org/2000/svg">
<path fill-rule="evenodd" clip-rule="evenodd" d="M31.4533 10.4866C34.3044 10.4866 36.6157 8.13909 36.6157 5.2433C36.6157 2.34751 34.3044 0 31.4533 0C28.6023 0 26.291 2.34751 26.291 5.2433C26.291 8.13909 28.6023 10.4866 31.4533 10.4866Z" fill="#FF2D46"/>
<path fill-rule="evenodd" clip-rule="evenodd" d="M31.4533 24.2434C34.3044 24.2434 36.6157 21.896 36.6157 19.0002C36.6157 16.1043 34.3044 13.7568 31.4533 13.7568C28.6023 13.7568 26.291 16.1043 26.291 19.0002C26.291 21.896 28.6023 24.2434 31.4533 24.2434Z" fill="#D53D5C"/>
<path fill-rule="evenodd" clip-rule="evenodd" d="M31.4533 38.0003C34.3044 38.0003 36.6157 35.6528 36.6157 32.757C36.6157 29.8611 34.3044 27.5137 31.4533 27.5137C28.6023 27.5137 26.291 29.8611 26.291 32.757C26.291 35.6528 28.6023 38.0003 31.4533 38.0003Z" fill="#815EAD"/>
<path fill-rule="evenodd" clip-rule="evenodd" d="M18.3078 24.2434C21.1589 24.2434 23.4702 21.896 23.4702 19.0002C23.4702 16.1043 21.1589 13.7568 18.3078 13.7568C15.4568 13.7568 13.1455 16.1043 13.1455 19.0002C13.1455 21.896 15.4568 24.2434 18.3078 24.2434Z" fill="#AB4D85"/>
<path fill-rule="evenodd" clip-rule="evenodd" d="M18.3078 37.9993C21.1589 37.9993 23.4702 35.6519 23.4702 32.756C23.4702 29.8603 21.1589 27.5127 18.3078 27.5127C15.4568 27.5127 13.1455 29.8603 13.1455 32.756C13.1455 35.6519 15.4568 37.9993 18.3078 37.9993Z" fill="#576ED6"/>
<path fill-rule="evenodd" clip-rule="evenodd" d="M5.16234 38.0003C8.01342 38.0003 10.3247 35.6528 10.3247 32.757C10.3247 29.8611 8.01342 27.5137 5.16234 27.5137C2.31126 27.5137 0 29.8611 0 32.757C0 35.6528 2.31126 38.0003 5.16234 38.0003Z" fill="#2388FF"/>
<path d="M62.5418 30.2046C59.4849 30.2046 57.1024 27.8291 57.1024 23.9918C57.1024 20.2915 59.4849 17.916 62.5418 17.916C65.4637 17.916 67.8912 20.3371 67.8912 23.9918C67.8912 27.7834 65.4637 30.2046 62.5418 30.2046ZM56.7877 32.4888C58.451 35.2754 61.7775 36.3261 64.0702 36.3261C69.9142 36.3261 74.7692 31.301 74.7692 24.0831C74.7692 17.0937 70.2288 11.7945 63.9353 11.7945C61.4179 11.7945 58.7656 12.8452 57.2822 15.175V3.20609H50.4492V35.7779H56.7877V32.4888Z" fill="#170F49"/>
<path d="M86.4852 12.3427H79.6972V35.7779H86.5751V26.3216C86.5751 21.4335 88.9576 18.3728 92.9136 18.3728C93.5879 18.3728 94.0824 18.4641 94.442 18.6012V11.9772C94.0824 11.8401 93.5429 11.7945 93.0035 11.7945C89.9466 11.7945 87.699 13.5304 86.4852 16.4084V12.3427Z" fill="#170F49"/>
<path d="M98.4531 35.7779H105.286V12.3427H98.4531V35.7779ZM101.78 1.97266C99.6668 1.97266 98.0035 3.52587 98.0035 5.67296C98.0035 7.82005 99.6668 9.41895 101.78 9.41895C103.892 9.41895 105.601 7.82005 105.601 5.67296C105.601 3.52587 103.892 1.97266 101.78 1.97266Z" fill="#170F49"/>
<path d="M116.796 24.0375L108.884 35.7779H116.526L120.842 28.7885L125.157 35.7779H132.799L124.888 24.0375L132.799 12.3427H125.022L120.842 19.3778L116.661 12.3427H108.884L116.796 24.0375Z" fill="#170F49"/>
</svg>
