<svg width="305" height="41" viewBox="0 0 305 41" fill="none" xmlns="http://www.w3.org/2000/svg">
<path d="M62.3688 33.1249V30.5945C63.8148 33.0165 66.5621 33.5587 68.1165 33.5587C72.7436 33.5587 76.6838 29.6185 76.6838 23.8346C76.6838 18.3038 73.1412 14.0744 67.9358 14.0744C66.1645 14.0744 64.1401 14.6889 62.8749 16.6048V7.27838H56.585V33.1249H62.3688ZM62.7303 23.7623C62.7303 21.1596 64.3932 19.5691 66.5982 19.5691C68.6587 19.5691 70.3577 21.1596 70.3577 23.7623C70.3577 26.3651 68.6587 28.0641 66.5982 28.0641C64.3932 28.0641 62.7303 26.4012 62.7303 23.7623Z" fill="#170F49"/>
<path d="M92.501 14.219C92.2118 14.1106 91.8142 14.0744 91.3442 14.0744C88.8861 14.0744 87.0786 15.4119 86.1026 17.6893V14.5082H79.8488V33.1249H86.1388V26.2928C86.1388 22.3887 87.9101 19.9667 91.0912 19.9667C91.7419 19.9667 92.2118 20.039 92.501 20.1836V14.219Z" fill="#170F49"/>
<path d="M94.9227 33.1249H101.213V14.5082H94.9227V33.1249ZM94.6697 9.30273C94.6697 11.1825 96.1156 12.5561 98.0315 12.5561C99.9474 12.5561 101.43 11.1825 101.43 9.30273C101.43 7.42298 99.9474 6.04932 98.0315 6.04932C96.1156 6.04932 94.6697 7.42298 94.6697 9.30273Z" fill="#170F49"/>
<path d="M109.845 23.9069L103.447 33.1249H110.424L113.46 28.2087L116.497 33.1249H123.473L117.075 23.9069L123.618 14.5082H116.46L113.46 19.6775L110.46 14.5082H103.302L109.845 23.9069Z" fill="#170F49"/>
<path d="M130.864 18.1592H133.25V25.6059C133.25 29.9438 135.708 32.3297 139.757 32.3297C141.601 32.3297 143.01 31.932 143.986 31.4621V26.1482C143.227 26.6904 142.324 26.835 141.564 26.835C140.408 26.835 139.54 26.1482 139.54 24.5576V18.1592H143.48V13.2791H139.54V8.25441H133.431V13.2791H130.864V18.1592Z" fill="#4A3AFF"/>
<path d="M163.324 24.0877C163.504 23.5093 163.685 22.3887 163.685 21.4127C163.685 16.3156 160.07 12.8453 154.756 12.8453C149.262 12.8453 145.068 17.1109 145.068 22.6056C145.068 28.1002 149.153 32.3297 155.515 32.3297C158.66 32.3297 161.118 31.5344 163.577 29.3293L160.395 25.3529C159.492 26.2205 158.01 27.0881 155.985 27.0881C153.853 27.0881 151.828 26.1843 151.539 24.0877H163.324ZM154.612 17.8339C156.238 17.8339 157.504 18.8461 157.612 20.4366V20.4728H151.431C151.539 18.7738 152.985 17.8339 154.612 17.8339Z" fill="#4A3AFF"/>
<path d="M166.777 13.2791V31.8959H173.067V22.0995C173.067 19.7859 174.259 18.34 176.031 18.34C177.911 18.34 178.923 19.4968 178.923 21.6657V31.8959H185.213V22.0995C185.213 19.7859 186.478 18.34 188.177 18.34C190.057 18.34 191.069 19.4968 191.069 21.6657V31.8959H197.359V20.5451C197.359 15.7373 194.684 12.8453 190.165 12.8453C187.02 12.8453 185.321 14.2551 184.056 15.8819C182.791 13.8937 180.766 12.8453 178.019 12.8453C175.814 12.8453 174.043 13.6045 172.777 15.4842V13.2791H166.777Z" fill="#4A3AFF"/>
<path d="M201.619 39.1257H207.909V30.0884C209.102 31.8236 211.199 32.3297 212.97 32.3297C218.176 32.3297 221.718 28.1002 221.718 22.5694C221.718 16.7856 217.67 12.8453 213.043 12.8453C211.524 12.8453 208.958 13.3876 207.403 15.8096V13.2791H201.619V39.1257ZM207.765 22.6417C207.765 20.0028 209.428 18.34 211.633 18.34C213.693 18.34 215.392 20.039 215.392 22.6417C215.392 25.2445 213.693 26.835 211.633 26.835C209.428 26.835 207.765 25.2445 207.765 22.6417Z" fill="#4A3AFF"/>
<path d="M224.666 26.3289C224.666 30.233 226.908 32.3297 230.812 32.3297C232.077 32.3297 233.053 32.1128 233.74 31.7874V26.7266C233.27 26.9073 232.836 26.9435 232.511 26.9435C231.065 26.9435 230.956 26.0397 230.956 25.1722V6.04932H224.666V26.3289Z" fill="#4A3AFF"/>
<path d="M241.516 32.3297C243.975 32.3297 245.601 31.2452 246.324 29.8354V31.8959H252.144V20.2559C252.144 15.6288 248.963 12.8453 243.577 12.8453C239.926 12.8453 236.926 14.4359 235.335 16.4602L238.625 20.4005C239.601 19.2799 241.119 18.1954 243.252 18.1954C244.806 18.1954 246.144 18.7376 246.144 20.292V20.3282L241.336 21.2681C237.432 22.0995 235.263 23.9792 235.263 26.7266C235.263 30.0161 237.902 32.3297 241.516 32.3297ZM246.144 24.1238V24.413C246.144 26.4735 244.987 27.811 242.999 27.811C241.878 27.811 241.263 27.2326 241.263 26.3289C241.263 25.4252 241.986 24.9553 243.107 24.7022L246.144 24.1238Z" fill="#4A3AFF"/>
<path d="M254.385 18.1592H256.771V25.6059C256.771 29.9438 259.229 32.3297 263.278 32.3297C265.121 32.3297 266.531 31.932 267.507 31.4621V26.1482C266.748 26.6904 265.844 26.835 265.085 26.835C263.929 26.835 263.061 26.1482 263.061 24.5576V18.1592H267.001V13.2791H263.061V8.25441H256.952V13.2791H254.385V18.1592Z" fill="#4A3AFF"/>
<path d="M286.845 24.0877C287.025 23.5093 287.206 22.3887 287.206 21.4127C287.206 16.3156 283.591 12.8453 278.277 12.8453C272.783 12.8453 268.589 17.1109 268.589 22.6056C268.589 28.1002 272.674 32.3297 279.036 32.3297C282.181 32.3297 284.639 31.5344 287.098 29.3293L283.916 25.3529C283.013 26.2205 281.531 27.0881 279.506 27.0881C277.373 27.0881 275.349 26.1843 275.06 24.0877H286.845ZM278.133 17.8339C279.759 17.8339 281.025 18.8461 281.133 20.4366V20.4728H274.951C275.06 18.7738 276.506 17.8339 278.133 17.8339Z" fill="#4A3AFF"/>
<path d="M296.732 32.3297C301.359 32.3297 304.468 29.7631 304.468 26.4374C304.468 22.7502 301.612 21.7741 298.684 20.6174C296.045 19.4968 294.925 19.316 294.925 18.6292C294.925 17.9423 295.756 17.5447 296.732 17.5447C298.467 17.5447 299.443 18.3761 300.058 19.4245L303.962 16.6048C302.805 14.3997 300.094 12.8453 296.913 12.8453C292.72 12.8453 289.213 14.8697 289.213 18.593C289.213 21.5934 291.274 23.0755 294.925 24.3769C297.491 25.2806 298.756 25.6059 298.756 26.582C298.756 27.2688 298.07 27.6303 296.804 27.6303C294.925 27.6303 293.479 26.4735 292.611 24.9914L288.599 28.0641C290.153 30.8114 293.262 32.3297 296.732 32.3297Z" fill="#4A3AFF"/>
<path fill-rule="evenodd" clip-rule="evenodd" d="M34.5609 11.739C37.8025 11.739 40.4304 9.11113 40.4304 5.8695C40.4304 2.62786 37.8025 0 34.5609 0C31.3193 0 28.6914 2.62786 28.6914 5.8695C28.6914 9.11113 31.3193 11.739 34.5609 11.739Z" fill="#8055FA"/>
<path fill-rule="evenodd" clip-rule="evenodd" d="M34.5609 25.8219C37.8025 25.8219 40.4304 23.1944 40.4304 19.9532C40.4304 16.712 37.8025 14.0845 34.5609 14.0845C31.3193 14.0845 28.6914 16.712 28.6914 19.9532C28.6914 23.1944 31.3193 25.8219 34.5609 25.8219Z" fill="#7550FB"/>
<path fill-rule="evenodd" clip-rule="evenodd" d="M34.5609 40.4299C37.8025 40.4299 40.4304 37.8021 40.4304 34.5604C40.4304 31.3188 37.8025 28.6909 34.5609 28.6909C31.3193 28.6909 28.6914 31.3188 28.6914 34.5604C28.6914 37.8021 31.3193 40.4299 34.5609 40.4299Z" fill="#6A4AFC"/>
<path d="M19.9551 14.084C23.1961 14.0842 25.8232 16.7121 25.8232 19.9531C25.823 23.194 23.1959 25.8211 19.9551 25.8213C16.714 25.8213 14.0862 23.1941 14.0859 19.9531C14.0859 16.7119 16.7139 14.084 19.9551 14.084Z" fill="#6045FD"/>
<path d="M19.9551 14.084C23.1961 14.0842 25.8232 16.7121 25.8232 19.9531C25.823 23.194 23.1959 25.8211 19.9551 25.8213C16.714 25.8213 14.0862 23.1941 14.0859 19.9531C14.0859 16.7119 16.7139 14.084 19.9551 14.084Z" stroke="#F7F7FB"/>
<path fill-rule="evenodd" clip-rule="evenodd" d="M19.9537 40.4299C23.1949 40.4299 25.8224 37.8021 25.8224 34.5604C25.8224 31.3188 23.1949 28.6909 19.9537 28.6909C16.7125 28.6909 14.085 31.3188 14.085 34.5604C14.085 37.8021 16.7125 40.4299 19.9537 40.4299Z" fill="#553FFE"/>
<path fill-rule="evenodd" clip-rule="evenodd" d="M5.8695 40.4299C9.11113 40.4299 11.739 37.8021 11.739 34.5604C11.739 31.3188 9.11113 28.6909 5.8695 28.6909C2.62786 28.6909 0 31.3188 0 34.5604C0 37.8021 2.62786 40.4299 5.8695 40.4299Z" fill="#4A3AFF"/>
</svg>
